<?xml version="1.0" encoding="utf-8"?>
<!-- Generator: Adobe Illustrator 21.0.0, SVG Export Plug-In . SVG Version: 6.00 Build 0)  -->
<svg version="1.1" id="Laag_1" xmlns="http://www.w3.org/2000/svg" xmlns:xlink="http://www.w3.org/1999/xlink" x="0px" y="0px"
	 viewBox="0 0 602.6 150.3" style="enable-background:new 0 0 602.6 150.3;" xml:space="preserve">
<style type="text/css">
	.st0{fill:#FBBA00;}
	.st1{fill:#693F2E;}
	.st2{fill:#FFFFFF;}
</style>
<path d="M15.1,12.2C20.9,32.8,36.7,90,36.7,90.1c9.5,32.5,40,49.5,65.3,49.5c0,0,457.5,0,485,0c-5.7-20.7-21.6-77.8-21.6-77.9
	C556,29.6,524.7,12.2,500,12.2C500.1,12.2,42.6,12.2,15.1,12.2z"/>
<path class="st0" d="M602.6,150.3l-26-92.4l0,0C566,21.4,531.3,0,499.2,0H0l25.6,92.6v0.1c10.7,36.8,45.4,57.4,75.6,57.7
	L602.6,150.3z M47.8,86.4C47.7,86.2,35.6,42.3,30.3,23c27.4,0,468.9,0,468.9,0c21.7,0,47.5,14.6,55.2,41.2
	c0.1,0.3,15.5,56,17.5,63.2c-27.4,0-469.9,0-469.9,0C80,127.4,55.3,112.1,47.8,86.4z"/>
<path class="st1" d="M47.8,86.4C47.7,86.2,35.6,42.3,30.3,23c27.4,0,468.9,0,468.9,0c21.7,0,47.5,14.6,55.2,41.2
	c0.1,0.3,15.5,56,17.5,63.2c-27.4,0-469.9,0-469.9,0C80,127.4,55.3,112.1,47.8,86.4z"/>
<g>
	<path class="st2" d="M94.5,107.1h10.2v-43h11.9v-7.8h-11.9v-6.7c0-3.1,1.1-4.2,4.4-4.2h7.5v-9.6h-8.3c-7.9,0-13.8,4.3-13.8,13.8
		v6.7H82.8l2.2,7.8h9.5V107.1z"/>
	<path class="st2" d="M129.5,90.1c0,11.5,9,17.6,17,17.6c5.3,0,9.9-2,13.1-6h0.2v5.4H170V56.4h-10.2v30.2c0,6.9-4.3,10.9-10,10.9
		c-5.8,0-10.1-4-10.1-10.9V56.4h-10.2V90.1z"/>
	<path class="st2" d="M188.1,107.1h10.2V76.9c0-6.9,4.3-10.9,10.1-10.9c5.7,0,10,4,10,10.9v30.2h10.2V73.4c0-11.5-9-17.6-16.9-17.6
		c-5.4,0-10,2-13.2,6h-0.2v-5.4h-10.2L188.1,107.1L188.1,107.1z"/>
	<path class="st2" d="M274,107.1h10.2V35.8H274v25.9c-3.8-3.6-7.9-6-13.1-6c-6.2,0-10.7,2.8-13.6,6.6c-2.8,3.6-3.6,6.9-3.6,19.3
		c0,12.5,0.8,15.8,3.6,19.4c2.9,3.8,7.4,6.6,13.6,6.6c5.2,0,9.9-2.4,13.1-5.9V107.1z M264,66c9.5,0,10,8.4,10,15.7
		c0,7.4-0.5,15.8-10,15.8c-9.6,0-10.1-7.9-10.1-15.8C253.9,73.9,254.4,66,264,66z"/>
	<path class="st2" d="M328.7,107.1h10.2V72.5c0-12.5-8.6-16.7-21.1-16.7c-7.6,0-13.2,2-17.1,7.4l8,6.1c1.8-2.9,4.3-3.9,9.6-3.9
		c7.3,0,10.4,1.7,10.4,6.5v5.3h-14.1c-10.9,0-16.5,6.9-16.5,15c0,8.8,6.6,15.5,17.9,15.5c6.9,0,10.4-1.6,12.5-5.1h0.2V107.1z
		 M328.7,89.3c0,7.9-2.9,8.8-11.4,8.8c-6.9,0-9.6-3-9.6-6.4c0-3.7,2.8-6.1,8.8-6.1h12.2V89.3z"/>
</g>
<g>
	<path class="st2" d="M368.5,107.7v-1.9l22.1-33.9c4.6-7.1,6.9-13.1,6.9-18.1c0-6.5-3.7-9.8-11-9.8c-2.6,0-5,0.7-7.3,2
		c-2.3,1.4-3.9,3.1-5,5.2l-6.2-5.1c1.1-3.2,3.2-5.7,6.4-7.5c3.2-1.9,7.1-2.8,11.6-2.8c6.8,0,12.1,1.6,15.9,4.7
		c3.8,3.1,5.7,7.6,5.7,13.3c0,5.3-2.5,12-7.6,20.1L384.3,99h27.7v8.7H368.5z"/>
</g>
<g>
	<path class="st2" d="M434.6,43.1c-2.3,0-4.5,0.4-6.7,1.1l0.5,2.2c1.4-0.5,3.1-0.8,5.2-0.8c2,0,3.3,0.4,3.9,1.1
		c0.6,0.7,0.9,2.2,0.9,4.6h-1.6c-6.6,0-9.9,2-9.9,5.9c0,1.7,0.5,3.2,1.5,4.2c1,1.1,2.4,1.6,4.2,1.6c1.1,0,2.1-0.2,3-0.5
		c0.8-0.3,1.8-0.9,2.8-1.8v2.1h1.2h1.6h0.1V49.9C441.4,45.4,439.1,43.1,434.6,43.1z M438.5,57.7c-1.1,1.1-2.1,1.8-2.9,2.2
		c-0.8,0.4-1.7,0.6-2.6,0.6c-0.9,0-1.7-0.3-2.2-1c-0.6-0.7-0.8-1.6-0.8-2.7c0-1.1,0.5-1.9,1.5-2.4c1-0.5,2.8-0.8,5.4-0.8h1.7V57.7z"
		/>
	<rect x="448.4" y="35.8" class="st2" width="2.9" height="27"/>
	<path class="st2" d="M467.1,43.1c-1.1,0-2.2,0.2-3.1,0.7c-0.9,0.4-1.9,1-2.9,1.8v-2.1H461h-2.7v7.2V72h2.9V61.2
		c1.7,1.2,3.6,1.9,5.4,1.9s3.5-0.7,5-2c1.6-1.5,2.5-4.1,2.5-7.9C474.1,46.5,471.8,43.1,467.1,43.1z M470,58.8
		c-0.8,1.2-2.2,1.8-4.2,1.8c-0.8,0-1.6-0.2-2.5-0.5c-0.9-0.4-1.6-0.8-2.1-1.5V48.3c0.6-0.5,1.1-0.9,1.5-1.2c0.4-0.3,1-0.6,1.8-0.9
		c0.8-0.3,1.6-0.5,2.4-0.5c1.2,0,2.2,0.6,3,1.9c0.8,1.3,1.2,3.2,1.2,5.7C471.2,55.8,470.8,57.6,470,58.8z"/>
	<path class="st2" d="M487.6,43c-0.9,0-1.8,0.1-2.5,0.3c-0.7,0.2-1.3,0.4-1.6,0.6c-0.3,0.2-0.8,0.5-1.3,1v-9.1h-2.9v27h2.9V47.3
		c1.2-1.2,2.8-1.9,4.7-1.9c2.6,0,3.9,1.6,3.9,4.7v12.7h2.9V49.3c0-2-0.6-3.5-1.8-4.6C490.8,43.5,489.4,43,487.6,43z"/>
	<path class="st2" d="M506.9,43.1c-2.3,0-4.5,0.4-6.7,1.1l0.5,2.2c1.4-0.5,3.1-0.8,5.2-0.8c2,0,3.3,0.4,3.9,1.1
		c0.6,0.7,0.9,2.2,0.9,4.6h-1.6c-6.6,0-9.9,2-9.9,5.9c0,1.7,0.5,3.2,1.5,4.2c1,1.1,2.4,1.6,4.2,1.6c1.1,0,2.1-0.2,3-0.5
		c0.8-0.3,1.8-1,2.9-1.9v2.2h1.1h1.7v-7.2v-5.6C513.7,45.4,511.4,43.1,506.9,43.1z M510.7,57.7c-1.1,1.1-2.1,1.8-2.9,2.2
		c-0.8,0.4-1.7,0.6-2.6,0.6c-0.9,0-1.7-0.3-2.2-1c-0.6-0.7-0.8-1.6-0.8-2.7c0-1.1,0.5-1.9,1.5-2.4c1-0.5,2.8-0.8,5.4-0.8h1.7V57.7z"
		/>
</g>
</svg>
